<svg xmlns="http://www.w3.org/2000/svg" version="1.1" xmlns:xlink="http://www.w3.org/1999/xlink" width="512" height="512" x="0" y="0" viewBox="0 0 24 24" style="enable-background:new 0 0 512 512" xml:space="preserve"><g><path fill="#ffffff" d="M18.75 15a.75.75 0 0 0-1.5 0zm-1.5 6a.75.75 0 0 0 1.5 0zM5.115 7.513a.75.75 0 0 0-.23 1.483zm3.614 2.474a.75.75 0 1 0 .542-1.399zm-3.614 1.526a.75.75 0 1 0-.23 1.483zm1.702 1.873a.75.75 0 0 0 .366-1.455zm5.933-7.333a.75.75 0 0 0-1.5 0zM12 21v.75a.75.75 0 0 0 .75-.75zM3.994 3.011l.085-.745zm7.323 2.413.43-.614zM3.994 18.372l.085-.745zm7.323 2.414.43-.615zM20.006 3.01l-.084-.745zm-7.323 2.413-.43-.614zM21.25 14a.75.75 0 0 0 1.5 0zM21 18.75a.75.75 0 0 0 0-1.5zm-6-1.5a.75.75 0 0 0 0 1.5zM17.25 15v6h1.5v-6zM4.885 8.996c1.229.19 2.586.505 3.844.991l.542-1.399c-1.386-.536-2.853-.873-4.156-1.075zm0 4c.62.096 1.273.224 1.932.39l.366-1.455a22.689 22.689 0 0 0-2.068-.417zm6.365-6.943V21h1.5V6.053zM3.91 3.757c2.176.245 5.007.901 6.976 2.282l.861-1.229C9.47 3.214 6.34 2.521 4.08 2.266zm0 15.36c2.176.247 5.007.903 6.976 2.283l.861-1.229C9.47 18.575 6.34 17.883 4.08 17.627zM1.25 4.936V16.2h1.5V4.935zm2.829 12.692c-.75-.085-1.329-.708-1.329-1.427h-1.5c0 1.543 1.214 2.754 2.66 2.918zm0-15.361C2.467 2.084 1.25 3.429 1.25 4.936h1.5c0-.757.576-1.245 1.16-1.18zm15.843 0c-2.26.255-5.391.948-7.67 2.544l.862 1.229c1.97-1.38 4.8-2.037 6.976-2.282zm1.328 2.67V14h1.5V4.935zm-1.16-1.18c.584-.065 1.16.423 1.16 1.18h1.5c0-1.507-1.216-2.852-2.829-2.67zM10.886 6.04c.667.467 1.561.467 2.228 0l-.861-1.229a.445.445 0 0 1-.506 0zm0 15.36c.335.235.726.351 1.114.351v-1.5a.44.44 0 0 1-.253-.079zM21 17.25h-6v1.5h6z" opacity="1" data-original="#28303f"></path></g></svg>