<svg xmlns="http://www.w3.org/2000/svg" version="1.1" xmlns:xlink="http://www.w3.org/1999/xlink" width="512" height="512" x="0" y="0" viewBox="0 0 513.108 513.108" style="enable-background:new 0 0 512 512" xml:space="preserve"><g><path d="M103.829 444.839v-433.8a126.29 126.29 0 0 0-103.275 0v433.8zM37.192 44.312h30v30h-30zm0 75.556h30v269.987h-30zM327.523 420.592c0 51.014 41.502 92.516 92.516 92.516s92.516-41.502 92.516-92.516c0-51.013-41.502-92.516-92.516-92.516s-92.516 41.503-92.516 92.516zm40.455-15h37.061v-37.06h30v37.06H472.1v30h-37.061v37.061h-30v-37.061h-37.061zM133.829 11.04v433.799h103.276v-433.8a126.292 126.292 0 0 0-103.276.001zm66.639 378.815h-30V119.868h30zm0-315.543h-30v-30h30zM133.829 474.839h103.276v37.54H133.829zM310.209 474.839h-43.103v37.54h71.879a123.224 123.224 0 0 1-28.776-37.54z" fill="#ffffff" opacity="1" data-original="#000000"></path><path d="M267.106 11.039v433.8h32.831a122.636 122.636 0 0 1-2.414-24.247c0-13.464 2.19-26.426 6.221-38.554v-262.17h30v213.843a123.002 123.002 0 0 1 36.638-25.11V11.039a126.292 126.292 0 0 0-103.276 0zm36.637 63.273v-30h30v30zM.554 474.839h103.275v37.54H.554z" fill="#ffffff" opacity="1" data-original="#000000"></path></g></svg>