<svg xmlns="http://www.w3.org/2000/svg" version="1.1" xmlns:xlink="http://www.w3.org/1999/xlink" width="512" height="512" x="0" y="0" viewBox="0 0 25 24" style="enable-background:new 0 0 512 512" xml:space="preserve" class=""><g><path fill="#666666" fill-rule="evenodd" d="M7.96 4.236a9.1 9.1 0 0 1 5.717-1.146l-.128.991.128-.99a9.1 9.1 0 0 1 7.849 7.772 1 1 0 0 1-1.981.275A7.1 7.1 0 0 0 8.96 5.968 7.1 7.1 0 0 0 6.726 8h1.81a1 1 0 0 1 0 2H4.534a1 1 0 0 1-1-1V5a1 1 0 1 1 2 0v1.273A9.099 9.099 0 0 1 7.96 4.236zM4.398 12.01a1 1 0 0 1 1.128.853 7.1 7.1 0 0 0 6.123 6.064 7.1 7.1 0 0 0 6.695-2.926h-1.809a1 1 0 1 1 0-2h4a1 1 0 0 1 1 1v4a1 1 0 1 1-2 0v-1.273a9.098 9.098 0 0 1-13.38.624 9.1 9.1 0 0 1-2.61-5.214 1 1 0 0 1 .853-1.128z" clip-rule="evenodd" opacity="1" data-original="#000000" class=""></path></g></svg>