<svg xmlns="http://www.w3.org/2000/svg" version="1.1" xmlns:xlink="http://www.w3.org/1999/xlink" width="512" height="512" x="0" y="0" viewBox="0 0 40.5 40.5" style="enable-background:new 0 0 512 512" xml:space="preserve" class=""><g><path d="M40.5 20.25c0 9.374-7.625 17-17 17a3 3 0 0 1 0-6c6.064 0 11-4.936 11-11 0-6.065-4.936-11-11-11-5.756 0-10.486 4.447-10.953 10.086l1.832-1.832a2.998 2.998 0 0 1 4.242 0 2.998 2.998 0 0 1 0 4.242l-6.75 6.75a2.996 2.996 0 0 1-4.242 0l-6.75-6.75a3 3 0 1 1 4.243-4.242l1.444 1.444c.669-8.766 8-15.698 16.934-15.698 9.375 0 17 7.626 17 17z" fill="#666666" opacity="1" data-original="#000000" class=""></path></g></svg>